<svg height="511pt" viewBox="-33 0 511 511.998" width="511pt" xmlns="http://www.w3.org/2000/svg"><path d="m322.496094 243.160156c0 4.8125-3.898438 8.710938-8.710938 8.710938-4.808594 0-8.710937-3.898438-8.710937-8.710938 0-4.808594 3.902343-8.710937 8.710937-8.710937 4.8125 0 8.710938 3.902343 8.710938 8.710937zm0 0"/><path d="m414.839844 427.308594h-224.539063c3.867188-56.421875 51-101.148438 108.386719-101.148438 50.253906 0 93.660156 34.046875 105.558594 82.796875.980468 4.023438 5.03125 6.492188 9.0625 5.507813 4.023437-.980469 6.492187-5.039063 5.507812-9.0625-6.304687-25.84375-21.125-49.28125-41.789062-66.234375 3.089844-11.183594 4.660156-22.742188 4.660156-34.445313 0-4.367187-.21875-8.695312-.640625-12.984375 10.304687-14.203125 15.738281-30.925781 15.738281-48.578125 0-39.503906-27.753906-72.628906-64.777344-80.957031l14.585938-14.589844c7.453125-7.453125 7.453125-19.578125 0-27.03125l-19.335938-19.335937 18.585938-18.585938c8.761719 5.46875 20.273438 4.320313 27.78125-3.183594 8.796875-8.792968 8.796875-23.027343.003906-31.820312l-41.066406-41.066406c-4.25-4.25-9.898438-6.589844-15.910156-6.589844-6.011719 0-11.660156 2.339844-15.910156 6.589844s-6.589844 9.898437-6.589844 15.910156c0 2.519531.433594 4.964844 1.226562 7.28125l-19.792968 19.792969-11.121094-11.125c-3.609375-3.609375-8.410156-5.597657-13.519532-5.597657-5.105468 0-9.90625 1.988282-13.515624 5.597657l-131.40625 131.410156c-2.90625 2.902344-4.738282 6.585937-5.347657 10.578125-3.902343.527344-7.515625 2.28125-10.34375 5.113281-.25.25-.472656.515625-.679687.792969l-.054688-.058594c-5.84375 5.84375-10.609375 12.457032-14.25 19.601563-2.757812-1.527344-5.925781-2.378907-9.273437-2.378907h-46.460938c-10.539062 0-19.113281 8.574219-19.113281 19.113282v34.847656c0 10.539062 8.574219 19.113281 19.113281 19.113281h37.460938l-25.945313 25.945313c-3.609375 3.609375-5.597656 8.410156-5.597656 13.519531 0 5.101563 1.988281 9.902344 5.597656 13.515625l24.640625 24.636719c3.609375 3.609375 8.410157 5.601562 13.515625 5.601562 5.105469 0 9.90625-1.992187 13.519532-5.601562l25.65625-25.660157v25.246094c0 10.539063 8.574218 19.113282 19.113281 19.113282h34.847656c10.539063 0 19.113281-8.574219 19.113281-19.113282v-34.847656c0-3.4375-.914062-6.683594-2.519531-9.492188 7.394531-3.6875 14.332031-8.585937 20.480469-14.730468 2.828125-2.828125 4.574218-6.425782 5.101562-10.332032 3.949219-.613281 7.65625-2.429687 10.59375-5.363281l17.632813-17.636719c3.011719 13.332032 9.289062 25.816407 18.40625 36.273438 5.75 6.589844 12.453125 12.183594 19.816406 16.621094-42.6875 9.785156-77.015625 41.730468-90.191406 83.03125h-133.320313c-12.402344 0-22.5 10.09375-22.5 22.5s10.097656 22.5 22.5 22.5h62.15625c-2.753906 4.605468-4.34375 9.984375-4.34375 15.730468v23.230469c0 16.945313 13.785156 30.726563 30.726563 30.726563h278.765625c16.941406 0 30.726562-13.78125 30.726562-30.726563v-23.230469c0-16.945312-13.785156-30.730468-30.726562-30.730468zm-50.929688-97.5625c-15.902344-9.933594-33.644531-16-52.347656-17.910156.28125-2.355469.433594-4.730469.433594-7.113282 0-15.964844-6.21875-30.976562-17.507813-42.261718-5.164062-5.167969-8.007812-12.035157-8.007812-19.339844 0-7.300782 2.84375-14.167969 8.007812-19.335938 5.164063-5.164062 12.03125-8.007812 19.335938-8.007812 7.304687 0 14.171875 2.84375 19.335937 8.007812 21.617188 21.621094 33.523438 50.363282 33.523438 80.9375.003906 8.464844-.941406 16.84375-2.773438 25.023438zm-52.5625-312.550782c2.933594-2.929687 7.675782-2.929687 10.605469 0l41.066406 41.066407c2.9375 2.9375 2.925781 7.679687 0 10.605469-2.929687 2.929687-7.675781 2.933593-10.605469 0l-41.066406-41.066407c-2.925781-2.925781-2.9375-7.667969 0-10.605469zm-6.996094 24.824219 30.460938 30.460938-18.160156 18.160156-30.460938-30.460937zm-288.851562 215.449219v-34.84375c0-2.269531 1.84375-4.117188 4.113281-4.117188h46.460938c1.539062 0 2.886719.847657 3.589843 2.144532-1.796874 6.667968-2.722656 13.617187-2.675781 20.71875.039063 6.351562.851563 12.574218 2.367188 18.574218-.757813 1.011719-1.957031 1.640626-3.28125 1.640626h-46.460938c-2.269531 0-4.113281-1.847657-4.113281-4.117188zm89.546875 53.273438-32.851563 32.851562c-1.601562 1.605469-4.214843 1.605469-5.820312 0l-24.636719-24.640625c-1.605469-1.601563-1.605469-4.214844 0-5.816406l32.851563-32.855469c.683594-.683594 1.582031-1.085938 2.519531-1.171875 3.542969 6.191406 7.957031 11.9375 13.214844 17.058594 4.863281 4.738281 10.226562 8.675781 15.914062 11.851562-.042969 1.007813-.453125 1.984375-1.191406 2.722657zm61.488281 8.195312v34.847656c0 2.269532-1.84375 4.113282-4.113281 4.113282h-34.847656c-2.269531 0-4.113281-1.84375-4.113281-4.113282v-34.847656c0-1.402344.734374-2.683594 1.871093-3.429688 6.0625 1.476563 12.285157 2.226563 18.515625 2.226563 6.746094 0 13.496094-.886719 20.070313-2.617187 1.554687.605468 2.617187 2.101562 2.617187 3.820312zm37.722656-50.226562c-1.738281 1.40625-4.226562 1.082031-5.5-.300782l-52.699218-52.699218c-2.945313-2.929688-7.691406-2.917969-10.609375 0-2.898438 2.894531-2.96875 7.617187-.007813 10.597656 0 0 0 .011718.007813.011718l52.699219 52.699219c1.152343 1.175781 1.601562 1.382813 1.632812 2.800781.015625.625-.128906 1.523438-.894531 2.289063-24.339844 24.339844-63.859375 24.929687-88.09375 1.316406-12.019531-11.710937-18.695313-27.390625-18.804688-44.152343-.109375-16.765626 6.359375-32.527344 18.214844-44.378907l-.058594-.058593c.277344-.207032.542969-.425782.792969-.675782 1.195312-1.195312 3.144531-1.210937 4.351562 0 6.976563 6.96875 7.945313 7.945313 8.945313 8.945313 2.902344 2.898437 7.664063 2.945312 10.609375 0 2.984375-2.984375 2.867188-7.742188 0-10.605469l-8.214844-8.214844c-.773437-.773437-1.199218-1.808594-1.199218-2.910156s.425781-2.132812 1.199218-2.90625l131.410156-131.410156c.777344-.777344 1.808594-1.207032 2.910157-1.207032 1.097656 0 2.128906.429688 2.90625 1.207032l82.132812 82.132812c1.605469 1.601563 1.605469 4.214844 0 5.820313l-23.179687 23.179687c-44.988282.523438-81.46875 37.007813-81.996094 81.996094-.4375.4375-26.089844 26.109375-26.554688 26.523438zm41.53125-25.550782c0-37.492187 30.503907-67.996094 67.996094-67.996094 37.496094 0 68 30.5 68 67.996094 0 9.007813-1.738281 17.710938-5.082031 25.816406-5.960937-20.882812-17.15625-40.015624-32.9375-55.796874-7.996094-7.996094-18.628906-12.402344-29.941406-12.402344-11.308594 0-21.945313 4.40625-29.941407 12.402344-7.996093 8-12.402343 18.632812-12.402343 29.941406 0 11.3125 4.40625 21.945312 12.402343 29.945312 8.457032 8.453125 13.113282 19.695313 13.113282 31.65625 0 1.425782-.09375 2.847656-.230469 4.261719-29.511719-7.660156-50.976563-34.765625-50.976563-65.824219zm-205.753906 176.648438c0-4.136719 3.367188-7.5 7.5-7.5h129.558594c-.902344 4.90625-1.515625 9.914062-1.820312 15h-127.738282c-4.132812 0-7.5-3.363282-7.5-7.5zm390.53125 61.460937c0 8.671875-7.054687 15.730469-15.726562 15.730469h-278.765625c-8.671875 0-15.726563-7.058594-15.726563-15.730469v-23.230469c0-8.671874 7.054688-15.730468 15.726563-15.730468h278.765625c8.671875 0 15.726562 7.058594 15.726562 15.730468zm0 0"/></svg>