<svg height="512pt" viewBox="0 0 512.00075 512" width="512pt" xmlns="http://www.w3.org/2000/svg"><path d="m504.0625 332.445312-76.59375-76.59375 58.519531-58.519531c6.390625-6.390625 9.910157-14.886719 9.910157-23.921875s-3.519532-17.53125-9.910157-23.921875c-3.425781-3.425781-7.460937-6.019531-11.859375-7.695312l16.65625-16.660157c13.191406-13.1875 13.191406-34.652343 0-47.839843-3.480468-3.484375-7.542968-6.039063-11.875-7.683594l11.777344-11.773437c6.390625-6.390626 9.90625-14.886719 9.90625-23.921876 0-9.039062-3.515625-17.53125-9.90625-23.921874-6.390625-6.390626-14.886719-9.9101568-23.921875-9.9101568s-17.53125 3.5195308-23.921875 9.9101568l-11.777344 11.777343c-1.640625-4.332031-4.195312-8.394531-7.675781-11.878906-13.191406-13.1875-34.652344-13.1875-47.84375 0l-98.242187 98.242187v-27.785156c0-19.113281-15.550782-34.667968-34.667969-34.667968-7.257813 0-14.011719 2.210937-19.59375 6.023437l-25.710938-25.707031c-13.191406-13.191406-34.652343-13.1875-47.84375 0-3.480469 3.484375-6.035156 7.546875-7.679687 11.875l-16.671875-16.671875c-13.191407-13.191407-34.652344-13.1875-47.84375 0-3.484375 3.484375-6.035157 7.542969-7.679688 11.875l-11.777343-11.773438c-13.191407-13.191406-34.652344-13.1875-47.84375 0-13.1875 13.1875-13.1875 34.652344 0 47.839844l11.777343 11.777344c-4.332031 1.644531-8.394531 4.199219-11.878906 7.679687-13.1875 13.191406-13.1875 34.652344 0 47.84375l98.242187 98.242188h-27.785156c-19.117187 0-34.667968 15.550781-34.667968 34.667968 0 12.960938 7.042968 24.308594 17.691406 30.257813l-44.144532 44.140625c-10.566406 10.570312-10.566406 27.765625 0 38.332031l34.761719 34.761719c1.953125 1.953125 4.511719 2.929688 7.074219 2.929688 2.558594 0 5.117188-.976563 7.070312-2.929688 3.902344-3.90625 3.902344-10.238281 0-14.144531l-34.761718-34.761719c-2.769532-2.769531-2.769532-7.273438 0-10.042969l21.605468-21.609375 132.027344 132.027344-21.605468 21.609375c-1.34375 1.339844-3.125 2.078125-5.023438 2.078125s-3.679688-.738281-5.019531-2.078125l-30.65625-30.65625c-3.902344-3.902344-10.234375-3.902344-14.140625 0-3.90625 3.90625-3.90625 10.238281 0 14.144531l30.652344 30.652344c5.285156 5.285156 12.222656 7.925781 19.164062 7.925781s13.882812-2.640625 19.164062-7.925781l28.679688-28.679688h.003906l59.074219-59.078124 76.453125 76.453124c5.121094 5.117188 11.925781 7.9375 19.164062 7.9375 7.242188 0 14.046876-2.816406 19.164063-7.9375l121.984375-121.984374c5.121094-5.117188 7.9375-11.925782 7.9375-19.164063s-2.820312-14.042969-7.9375-19.164063zm-344.484375-282.527343c0-3.695313 1.441406-7.167969 4.054687-9.777344 2.609376-2.613281 6.082032-4.050781 9.777344-4.050781 3.691406 0 7.167969 1.4375 9.777344 4.050781l27.265625 27.261719c-1.191406 2.988281-1.988281 6.1875-2.316406 9.546875l-2.445313 24.804687-42.058594-42.058594c-2.613281-2.613281-4.054687-6.085937-4.054687-9.777343zm-68.144531-14.574219c5.394531-5.394531 14.167968-5.394531 19.558594 0l92.160156 92.160156-1.015625 10.324219c-.753907 7.621094-2.742188 15.035156-5.808594 21.964844l-104.894531-104.894531c-5.390625-5.390626-5.390625-14.164063 0-19.554688zm-67.296875.097656c2.609375-2.609375 6.082031-4.050781 9.777343-4.050781 3.695313 0 7.167969 1.4375 9.777344 4.050781l33.589844 33.589844.011719.011719 100.667969 100.667969s.003906.003906.003906.003906l7.476562 7.476562c-1.261718 1.484375-2.578125 2.921875-3.960937 4.304688l-15.421875 15.425781-141.921875-141.921875c-2.613281-2.613281-4.050781-6.085938-4.050781-9.777344 0-3.695312 1.4375-7.167968 4.050781-9.78125zm-.101563 86.859375c-5.394531-5.394531-5.394531-14.167969 0-19.558593 2.613282-2.613282 6.082032-4.050782 9.777344-4.050782s7.167969 1.4375 9.777344 4.050782l100.667968 100.667968c.003907.003906.007813.007813.011719.007813l7.644531 7.644531-19.558593 19.558594zm54.875 161.644531c-7.542968-.742187-13.230468-7.015624-13.230468-14.597656 0-8.085937 6.578124-14.664062 14.667968-14.664062h27.945313l-29.273438 29.273437zm-9.789062 38.195313 126.5-126.5c14.960937-14.960937 24.34375-34.792969 26.417968-55.851563l6-60.878906c.742188-7.542968 7.019532-13.230468 14.597657-13.230468 8.085937 0 14.667969 6.582031 14.667969 14.667968v51.929688c0 4.046875 2.4375 7.691406 6.171874 9.238281 3.738282 1.546875 8.039063.691406 10.898438-2.167969l115.3125-115.3125c5.390625-5.390625 14.164062-5.390625 19.554688 0 5.394531 5.394532 5.394531 14.167969 0 19.558594l-90.996094 90.996094s0 .003906-.003906.003906l-9.667969 9.667969c-3.902344 3.90625-3.902344 10.238281 0 14.144531 3.90625 3.902344 10.238281 3.902344 14.144531 0l134.265625-134.269531c2.613281-2.613281 6.085937-4.050781 9.78125-4.050781 3.691406 0 7.164063 1.4375 9.777344 4.050781 2.613281 2.609375 4.050781 6.085937 4.050781 9.777343 0 3.695313-1.4375 7.167969-4.050781 9.78125l-134.265625 134.265626c-3.90625 3.90625-3.90625 10.238281 0 14.144531 3.902344 3.902343 10.238281 3.902343 14.140625 0l9.664062-9.664063c.003907-.003906.007813-.003906.007813-.007812l90.996094-90.996094c5.394531-5.394531 14.167968-5.394531 19.558593 0 5.390625 5.390625 5.390625 14.164062 0 19.554688l-90.996093 90.996093c0 .003907-.003907.003907-.003907.003907l-9.667969 9.671874c-3.90625 3.902344-3.90625 10.234376 0 14.140626 3.902344 3.90625 10.234376 3.90625 14.140626 0l62.171874-62.171876c5.394532-5.394531 14.167969-5.394531 19.558594 0 5.390625 5.394532 5.390625 14.164063 0 19.558594l-88.578125 88.578125c-.480469.480469-.902343.996094-1.261719 1.542969l-121.746093 121.742188c-.011719.015624-.023438.023437-.035157.035156-.015624.015625-.023437.027344-.035156.039062l-59.042968 59.042969zm328.292968-35.949219c.480469-.480468.898438-1 1.261719-1.546875l14.648438-14.648437 40.839843 40.839844-132.023437 132.027343-40.699219-40.699219zm92.503907 70.441406-121.984375 121.980469c-1.339844 1.34375-3.125 2.082031-5.019532 2.082031-1.894531 0-3.679687-.738281-5.019531-2.082031l-21.609375-21.605469 132.023438-132.027343 21.613281 21.609375c1.339844 1.34375 2.078125 3.125 2.078125 5.019531 0 1.898437-.738281 3.679687-2.082031 5.023437zm0 0"/><path d="m89.347656 428.058594c-2.632812 0-5.210937 1.0625-7.070312 2.929687-1.859375 1.859375-2.929688 4.429688-2.929688 7.070313 0 2.628906 1.070313 5.210937 2.929688 7.070312s4.4375 2.929688 7.070312 2.929688c2.628906 0 5.210938-1.070313 7.070313-2.929688 1.859375-1.871094 2.929687-4.441406 2.929687-7.070312 0-2.640625-1.070312-5.210938-2.929687-7.070313-1.859375-1.871093-4.441407-2.929687-7.070313-2.929687zm0 0"/></svg>