<?xml version="1.0" encoding="utf-8"?>
<!-- Svg Vector Icons : http://www.onlinewebfonts.com/icon -->
<!DOCTYPE svg PUBLIC "-//W3C//DTD SVG 1.1//EN" "http://www.w3.org/Graphics/SVG/1.1/DTD/svg11.dtd">
<svg version="1.1" xmlns="http://www.w3.org/2000/svg" xmlns:xlink="http://www.w3.org/1999/xlink" x="0px" y="0px" viewBox="0 0 1000 1000" enable-background="new 0 0 1000 1000" xml:space="preserve">
<metadata> Svg Vector Icons : http://www.onlinewebfonts.com/icon </metadata>
<g><path d="M159.1,990c-63.5-4.9-61.3-60.7-61.2-63.1V179.2c0-59.3,49.6-62.3,59.5-62.3l64.7-0.2V172h-44.4c-9.4,0-14.9,3.8-17.8,7c-7.4,8-6.7,19.5-6.6,20.8l0,711.6c-0.2,7,1.8,12.9,5.9,17.2c6,6.2,14.3,6.7,16.7,6.7l648.6,0c8,0,12.9-3.4,15.5-6.3c6.9-7.4,6.2-18.3,6.2-19.5l0-713.1c0.1-6.6-2-12.3-6-16.4c-6.4-6.5-15.7-7.5-20.7-7.5c-1.3,0-2.1,0.1-2.1,0.1l-38.6,0v-56.3h60.9c21.6,1.3,38.1,8.2,48.8,20.5c15.3,17.7,13.5,40.6,13.5,40.9l0,750.7c0.9,19-3.7,33.7-13.6,44c-15.7,16.5-40.5,17.8-47.8,17.8L159.1,990L159.1,990z M313,853.7c-6.1,0-11-5-11-11v-32.7c0-6.1,5-11,11-11h373.3c6.1,0,11,5,11,11v32.7c0,6.1-4.9,11-11,11H313L313,853.7z M313,716.9c-6.1,0-11-5-11-11v-32.7c0-6.1,5-11,11-11h373.3c6.1,0,11,5,11,11v32.7c0,6.1-4.9,11-11,11H313L313,716.9z M653.8,581.7c-6.1,0-11.1-5-11.1-11.1V264.7c0-6.1,5-11.1,11.1-11.1h32.9c6.1,0,11.1,5,11.1,11.1v305.9c0,6.1-5,11.1-11.1,11.1H653.8L653.8,581.7z M483,581.7c-6.1,0-11.1-5-11.1-11.1V264.7c0-6.1,5-11.1,11.1-11.1h32.9c6.1,0,11.1,5,11.1,11.1v305.9c0,6.1-5,11.1-11.1,11.1H483L483,581.7z M312.9,581.7c-6.1,0-11.1-5-11.1-11.1V264.7c0-6.1,5-11.1,11.1-11.1h32.9c6.1,0,11.1,5,11.1,11.1v305.9c0,6.1-5,11.1-11.1,11.1H312.9L312.9,581.7z M301.7,171.7v-55.5h73.8l79.9-89.3c0,0,16.3-16.8,40.2-16.8c0.9,0,1.9,0,2.9,0.1L501,10c5,0,22.9,1.3,41.6,17.6l81.4,88.5h73.7v55.5L301.7,171.7L301.7,171.7z M499.3,41.7c-4,0-9.9,1.5-15.5,8.4l-56.4,66h142.2l-54.5-66.6C514.4,48.6,508.2,41.7,499.3,41.7L499.3,41.7z"/></g>
</svg>