<svg height="480pt" viewBox="0 0 480 480" width="480pt" xmlns="http://www.w3.org/2000/svg"><path d="m320 144h112c4.417969 0 8-3.582031 8-8v-128c0-4.417969-3.582031-8-8-8h-112c-4.417969 0-8 3.582031-8 8v128c0 4.417969 3.582031 8 8 8zm8-128h96v112h-96zm0 0"/><path d="m456 160h-160c-13.25.015625-23.984375 10.75-24 24v112c0 4.417969 3.582031 8 8 8h24v1.472656c-2.5625-.945312-5.269531-1.445312-8-1.472656-13.253906 0-24 10.746094-24 24s10.746094 24 24 24c2.730469-.027344 5.4375-.527344 8-1.472656v25.472656c0 4.417969 3.582031 8 8 8h24v48c-17.664062.019531-31.980469 14.335938-32 32v8c0 4.417969 3.582031 8 8 8h128c4.417969 0 8-3.582031 8-8v-8c-.019531-17.664062-14.335938-31.980469-32-32v-48h24c4.417969 0 8-3.582031 8-8v-25.476562c2.5625.949218 5.269531 1.449218 8 1.476562 13.253906 0 24-10.746094 24-24s-10.746094-24-24-24c-2.730469.027344-5.4375.527344-8 1.472656v-1.472656h24c4.417969 0 8-3.582031 8-8v-112c-.015625-13.25-10.75-23.984375-24-24zm-160 176c-4.417969 0-8-3.582031-8-8s3.582031-8 8-8 8 3.582031 8 8c-.003906 4.417969-3.582031 7.996094-8 8zm8-48h-16v-104c.003906-4.417969 3.582031-7.996094 8-8h8zm85.246094-112-13.246094 44.15625-13.246094-44.15625zm10.753906 19.84375v31.210938l-11.015625 5.507812zm-48 0 11.015625 36.71875-11.015625-5.507812zm16 268.15625h-48c.011719-8.832031 7.167969-15.988281 16-16h32zm0-32h-16v-48h16zm64 32h-48v-16h32c8.832031.011719 15.988281 7.167969 16 16zm-48-32v-48h16v48zm48-128h-24c-4.417969 0-8 3.582031-8 8s3.582031 8 8 8h24v48h-112v-48h24c4.417969 0 8-3.582031 8-8s-3.582031-8-8-8h-24v-128h16v56c0 3.03125 1.710938 5.800781 4.421875 7.15625l32 16c.121094.058594.257813.035156.378906.089844.195313.085937.367188.222656.566407.292968 1.703124.613282 3.5625.613282 5.265624 0 .199219-.070312.371094-.207031.566407-.292968.121093-.054688.257812-.03125.378906-.089844l32-16c2.710937-1.355469 4.421875-4.125 4.421875-7.15625v-56h16zm24 16c4.417969 0 8 3.582031 8 8s-3.582031 8-8 8-8-3.582031-8-8c.003906-4.417969 3.582031-7.996094 8-8zm8-32h-16v-112h8c4.417969.003906 7.996094 3.582031 8 8zm0 0"/><path d="m368 272h16v16h-16zm0 0"/><path d="m368 320h16v16h-16zm0 0"/><path d="m344 32h16v16h-16zm0 0"/><path d="m392 32h16v16h-16zm0 0"/><path d="m352 96h48v16h-48zm0 0"/><path d="m144 336h-32c-4.417969 0-8 3.582031-8 8s3.582031 8 8 8h32c4.417969 0 8-3.582031 8-8s-3.582031-8-8-8zm0 0"/><path d="m8 480h240c4.417969 0 8-3.582031 8-8v-160c0-4.417969-3.582031-8-8-8h-8v-24c0-4.417969-3.582031-8-8-8h-80v-64h16v24c0 4.417969 3.582031 8 8 8h32c4.417969 0 8-3.582031 8-8v-24h8c4.417969 0 8-3.582031 8-8v-32c-.011719-3.335938-2.105469-6.308594-5.242188-7.445312l26.898438-26.898438c3.125-3.125 3.125-8.1875 0-11.3125l-24-24c-3.125-3.125-8.1875-3.125-11.3125 0l-61.65625 61.65625h-44.6875c-4.417969 0-8 3.582031-8 8v104c-4.417969 0-8 3.582031-8 8v24h-24.203125c5.289063-6.882812 8.171875-15.316406 8.203125-24-.058594-12.53125-5.980469-24.3125-16-31.835938v-56.164062c0-4.417969-3.582031-8-8-8h-32c-4.417969 0-8 3.582031-8 8v56.164062c-10.019531 7.523438-15.9414062 19.304688-16 31.835938.03125 8.683594 2.914062 17.117188 8.203125 24h-.203125c-4.417969 0-8 3.582031-8 8v160c0 4.417969 3.582031 8 8 8zm192-256h-16v-16h16zm24-108.6875 12.6875 12.6875-32 32h-25.375zm-72 60.6875h64v16h-64zm88 288h-104v-80h104zm-120-288h16v96h-16zm-8 112h112v16h-112zm-83.976562-28.648438c2.460937-1.433593 3.976562-4.066406 3.976562-6.914062v-52.4375h16v52.4375c0 2.847656 1.515625 5.480469 3.976562 6.914062 7.433594 4.214844 12.027344 12.101563 12.023438 20.648438 0 13.253906-10.746094 24-24 24s-24-10.746094-24-24c-.003906-8.546875 4.589844-16.433594 12.023438-20.648438zm-12.023438 60.648438h224v48h-224zm0 64h104v80h-104zm0 0"/><path d="m48 120h16v16h-16zm0 0"/><path d="m48 152h16v16h-16zm0 0"/><path d="m32 136h16v16h-16zm0 0"/><path d="m64 136h16v16h-16zm0 0"/></svg>