<?xml version="1.0" encoding="iso-8859-1"?>
<!-- Generator: Adobe Illustrator 17.1.0, SVG Export Plug-In . SVG Version: 6.00 Build 0)  -->
<!DOCTYPE svg PUBLIC "-//W3C//DTD SVG 1.1//EN" "http://www.w3.org/Graphics/SVG/1.1/DTD/svg11.dtd">
<svg version="1.1" id="Capa_1" xmlns="http://www.w3.org/2000/svg" xmlns:xlink="http://www.w3.org/1999/xlink" x="0px" y="0px"
	 viewBox="0 0 389.311 389.311" style="enable-background:new 0 0 389.311 389.311;" xml:space="preserve">
<path d="M124.905,273.359h37.211v37.209c0,5.523,4.478,10,10,10h45.078c5.522,0,10-4.477,10-10v-37.209h37.211
	c5.522,0,10-4.477,10-10v-45.083c0-5.523-4.478-10-10-10h-37.211v-37.208c0-5.523-4.478-10-10-10h-45.078c-5.522,0-10,4.477-10,10
	v37.208h-37.211c-5.522,0-10,4.477-10,10v45.083C114.905,268.882,119.383,273.359,124.905,273.359z M134.905,228.276h37.211
	c5.522,0,10-4.477,10-10v-37.208h25.078v37.208c0,5.523,4.478,10,10,10h37.211v25.083h-37.211c-5.522,0-10,4.477-10,10v37.209
	h-25.078v-37.209c0-5.523-4.478-10-10-10h-37.211V228.276z M379.311,101.97h-82.328V19.643c0-5.523-4.478-10-10-10H102.328
	c-5.522,0-10,4.477-10,10v82.327H10c-5.522,0-10,4.477-10,10v257.697c0,5.523,4.478,10,10,10h369.311c5.522,0,10-4.477,10-10V111.97
	C389.311,106.447,384.833,101.97,379.311,101.97z M112.328,29.643h164.654v16.521H112.328V29.643z M112.328,66.164h164.654v35.807
	H112.328V66.164z M369.311,359.667H20V121.97h349.311V359.667z"/>
<g>
</g>
<g>
</g>
<g>
</g>
<g>
</g>
<g>
</g>
<g>
</g>
<g>
</g>
<g>
</g>
<g>
</g>
<g>
</g>
<g>
</g>
<g>
</g>
<g>
</g>
<g>
</g>
<g>
</g>
</svg>
