<svg viewBox="0 -1 480 480" xmlns="http://www.w3.org/2000/svg"><path d="m128 179.117188c7.730469 0 14-6.269532 14-14 0-7.730469-6.269531-14-14-14s-14 6.269531-14 14c.007812 7.726562 6.273438 13.992187 14 14zm0-16c1.105469 0 2 .894531 2 2 0 2.199218-4 2.199218-4 0 0-1.105469.894531-2 2-2zm0 0"/><path d="m208 179.117188c7.730469 0 14-6.269532 14-14 0-7.730469-6.269531-14-14-14s-14 6.269531-14 14c.007812 7.726562 6.273438 13.992187 14 14zm0-16c1.105469 0 2 .894531 2 2 0 2.199218-4 2.199218-4 0 0-1.105469.894531-2 2-2zm0 0"/><path d="m198 221.117188h-12c0 9.941406-8.058594 18-18 18s-18-8.058594-18-18h-12c0 16.570312 13.429688 30 30 30s30-13.429688 30-30zm0 0"/><path d="m424 349.117188h32c4.417969 0 8-3.582032 8-8v-24h8c4.417969 0 8-3.582032 8-8-.035156-30.914063-25.085938-55.964844-56-56v-40h8c4.417969 0 8-3.582032 8-8v-32c0-4.417969-3.582031-8-8-8h-64c-4.417969 0-8 3.582031-8 8v32c0 4.417968 3.582031 8 8 8h8v40.480468c-3.878906.335938-7.734375.90625-11.542969 1.703125-4.007812-1.390625-8.214843-2.128906-12.457031-2.183593-18.910156.027343-35.222656 13.277343-39.136719 31.777343-8.90625 9.828125-15.671875 21.398438-19.871093 33.984375-4.246094-1.101562-8.605469-1.691406-12.992188-1.761718h-64v-44.992188c29.664062-17.125 47.953125-48.757812 48-83.007812h4c15.464844 0 28-12.535157 28-28 0-15.464844-12.535156-28-28-28h-4.328125l-3.015625-72.152344c-.015625-.304688-.046875-.609375-.097656-.910156-3.433594-21.683594-16.679688-40.566407-35.898438-51.183594-19.214844-10.613282-42.253906-11.765625-62.4375-3.128906l-35.917968 15.375c-34.667969.957031-62.277344 29.320312-62.304688 64 0 .378906.027344.761718.078125 1.136718l6.699219 46.863282h-2.777344c-15.464844 0-28 12.535156-28 28 0 15.464843 12.535156 28 28 28h4c.046875 34.25 18.335938 65.882812 48 83.007812v44.992188h-64c-30.914062.035156-55.9648438 25.085937-56 56v72c0 4.417968 3.582031 8 8 8h280v16c0 4.417968 3.582031 8 8 8h176c4.417969 0 8-3.582032 8-8v-32c0-4.417969-3.582031-8-8-8h-100.6875l-35.3125-35.3125v-4.6875h128v-16h-128c.042969-15.136719 6.222656-29.613282 17.128906-40.113282 11.746094-.347656 22.734375-5.871094 30.023438-15.085937 2.921875-.5 5.882812-.769531 8.847656-.800781h24v24c0 4.417968 3.582031 8 8 8zm24-16h-16v-16h16zm-72-152h48v16h-48zm32 32v40h-16v-40zm-320-64h72v16c0 13.253906-10.746094 24-24 24h-40c-4.417969 0-8-3.582032-8-8zm1.886719-16 9.3125-43.535157c2.296875-8.359375 8.40625-15.140625 16.480469-18.292969 8.074218-3.152343 17.164062-2.300781 24.511718 2.292969l3.503906 2.191407c14.898438 9.34375 33.964844 8.753906 48.257813-1.496094 6.777344-4.839844 15.382813-6.339844 23.398437-4.074219 8.011719 2.261719 14.566407 8.042969 17.808594 15.714844l12.441406 47.199219zm86.113281 16h72v32c0 4.417968-3.582031 8-8 8h-40c-13.253906 0-24-10.746094-24-24zm104 12c0 6.628906-5.371094 12-12 12h-4v-24h4c6.628906 0 12 5.371093 12 12zm-152-124c1.082031.003906 2.15625-.21875 3.152344-.648438l37.375-16c15.574218-6.664062 33.347656-5.804688 48.207031 2.328125 14.863281 8.128906 25.167969 22.632813 27.953125 39.34375l.511719 12.234375c-6.214844-10.441406-16.519531-17.796875-28.40625-20.292969-11.890625-2.492187-24.28125.105469-34.167969 7.164063-9.027344 6.46875-21.066406 6.839844-30.472656.941406l-3.496094-2.191406c-11.710938-7.324219-26.207031-8.636719-39.046875-3.535156-12.835937 5.097656-22.476563 16.003906-25.96875 29.367187l-2.039063 9.6875-1.601562-10.941406c.328125-26.285157 21.714844-47.429688 48-47.457031zm-60 136c-6.628906 0-12-5.371094-12-12 0-6.628907 5.371094-12 12-12h4v24zm21.457031 30.976562c2.121094.644531 4.324219.992188 6.542969 1.023438h40c12.640625-.035157 24.511719-6.0625 32-16.246094 7.488281 10.183594 19.359375 16.210937 32 16.246094h40c2.21875-.03125 4.421875-.378907 6.542969-1.023438-7.171875 37.71875-40.148438 65.011719-78.542969 65.011719s-71.371094-27.292969-78.542969-65.011719zm78.542969 81.023438c10.910156-.023438 21.730469-1.917969 32-5.601563v42.289063l-32 32-32-32v-42.289063c10.269531 3.683594 21.089844 5.578125 32 5.601563zm-152 88c.027344-22.082032 17.917969-39.972657 40-40h16v24c0 4.417968 3.582031 8 8 8h33.753906l6.484375 25.9375c.890625 3.5625 4.089844 6.0625 7.761719 6.0625.859375 0 1.714844-.140626 2.527344-.414063l24-8-5.054688-15.203125-15.808594 5.265625-5.902343-23.617187c-.902344-3.550782-4.097657-6.035157-7.761719-6.03125h-32v-16h36.6875l35.3125 35.3125v68.6875h-144zm160 64v-68.6875l35.3125-35.3125h36.6875v16h-32c-3.671875 0-6.871094 2.5-7.761719 6.0625l-5.902343 23.617187-15.808594-5.265625-5.054688 15.203125 24 8c.816406.265625 1.667969.394531 2.527344.382813 3.671875 0 6.871094-2.5 7.761719-6.0625l6.484375-25.9375h33.753906c4.417969 0 8-3.582032 8-8v-24h16c3.117188.050781 6.222656.472656 9.238281 1.257812-.789062 4.875-1.203125 9.804688-1.238281 14.742188v88zm288 24h-160v-16h160zm-115.3125-32h-44.6875v-80c.007812-14.25 3.855469-28.230469 11.136719-40.480469 3.886719 9.078125 10.984375 16.40625 19.933593 20.585937-9.742187 12.558594-15.042968 27.996094-15.070312 43.894532v24c0 2.121093.84375 4.15625 2.34375 5.65625zm3.3125-112c-13.253906 0-24-10.746094-24-24 0-13.253907 10.746094-24 24-24s24 10.746093 24 24c0 13.253906-10.746094 24-24 24zm39.199219-15.960938c2.316406-11.230469-.378907-22.914062-7.375-32h40.175781c19 .023438 35.375 13.386719 39.199219 32h-71.199219c-.273438-.039062-.542969 0-.800781 0zm0 0"/></svg>