<svg height="496pt" viewBox="0 0 496.00193 496" width="496pt" xmlns="http://www.w3.org/2000/svg"><path d="m336 336v-16h-176v16h16v136c0 13.234375 10.769531 24 24 24h96c13.234375 0 24-10.765625 24-24v-136zm-32 136c0 4.417969-3.582031 8-8 8h-96c-4.414062 0-8-3.582031-8-8v-24h48v-16h-48v-16h32v-16h-32v-16h48v-16h-48v-32h112zm0 0"/><path d="m464 358.703125v-38.703125h8c13.234375 0 24-10.765625 24-24 0-13.230469-10.765625-24-24-24h-91.871094c-7.246094-9.375-17.152344-16.390625-28.605468-19.695312l-63.523438-18.320313v-16.101563c8.457031-6.792968 15.144531-15.683593 19.289062-25.882812h4.710938c17.648438 0 32-14.351562 32-32v-64c0-52.933594-43.0625-96-96-96-26.742188 0-52.316406 12.402344-68.917969 33.289062-16.296875 6.519532-27.082031 22.28125-27.082031 40.007813v86.703125c0 17.648438 14.355469 32 32 32h4.714844c4.144531 10.199219 10.832031 19.089844 19.285156 25.882812v16.101563l-63.519531 18.320313c-11.453125 3.304687-21.351563 10.320312-28.605469 19.695312h-91.875c-13.230469 0-24 10.769531-24 24 0 13.234375 10.769531 24 24 24h8v32.007812c-20.292969 15.226563-32.175781 39.050782-32 64.570313.304688 42.597656 35.179688 78.207031 77.738281 79.390625.757813.015625 1.527344.03125 2.296875.03125 20.957032 0 40.679688-7.992188 55.742188-22.648438 15.625-15.183593 24.222656-35.558593 24.222656-57.351562 0-25.285156-11.878906-48.894531-32-63.992188v-32.007812h8c13.234375 0 24-10.765625 24-24 0-12.230469-9.230469-22.238281-21.070312-23.703125 3.113281-1.9375 6.417968-3.582031 9.984374-4.617187l37.3125-10.765626 17.382813 60.839844 44.390625-35.503906 44.394531 35.511719 17.382813-60.839844 37.3125 10.765625c3.574218 1.035156 6.871094 2.679688 9.984375 4.617188-11.839844 1.457031-21.074219 11.464843-21.074219 23.695312 0 13.234375 10.769531 24 24 24h8v38.703125l-30.167969 90.523437c-1.214843 3.628907-1.832031 7.414063-1.832031 11.246094 0 19.59375 15.9375 35.527344 35.53125 35.527344h88.933594c19.601562 0 35.535156-15.933594 35.535156-35.527344 0-3.832031-.613281-7.609375-1.828125-11.238281zm-339.382812 103.179687c-12.496094 12.15625-28.808594 18.703126-46.445313 18.085938-34.035156-.9375-61.929687-29.433594-62.171875-63.496094-.03125-4.359375.488281-8.632812 1.3125-12.816406 4.648438 2.433594 10.496094 4.34375 18.640625 4.34375 13.601563 0 20.863281-5.277344 26.703125-9.527344 5.167969-3.757812 8.898438-6.472656 17.296875-6.472656 8.410156 0 12.136719 2.714844 17.304687 6.472656 5.847657 4.25 13.113282 9.527344 26.71875 9.527344 8.175782 0 14.042969-1.917969 18.707032-4.359375.789062 4.039063 1.316406 8.152344 1.316406 12.359375 0 17.433594-6.878906 33.730469-19.382812 45.882812zm19.382812-165.882812c0 4.417969-3.582031 8-8 8h-24v56.417969l3.546875 2.375c9.640625 6.457031 17.078125 15.28125 21.96875 25.367187-3.601563 2.328125-7.265625 3.839844-13.539063 3.839844-8.40625 0-12.144531-2.710938-17.3125-6.472656-5.832031-4.246094-13.109374-9.527344-26.710937-9.527344-13.597656 0-20.863281 5.28125-26.703125 9.527344-5.160156 3.761718-8.894531 6.472656-17.296875 6.472656-6.238281 0-9.902344-1.511719-13.488281-3.832031 4.890625-10.085938 12.335937-18.917969 21.984375-25.382813l3.550781-2.367187v-40.417969h48v-16h-72c-4.414062 0-8-3.582031-8-8 0-4.414062 3.585938-8 8-8h112c4.417969 0 8 3.585938 8 8zm168-120h-.550781c.328125-2.621094.550781-5.285156.550781-8v-24c8.824219 0 16 7.175781 16 16s-7.175781 16-16 16zm-125.46875-128.414062 2.367188-.792969 1.503906-1.984375c13.527344-18.039063 35.0625-28.808594 57.597656-28.808594 44.113281 0 80 35.890625 80 80v36.449219c-4.726562-2.753907-10.140625-4.449219-16-4.449219v-16h-8c-24.070312 0-47.933594-7.949219-67.199219-22.398438l-6.765625-5.082031-7.378906 11.074219c-6.847656 10.269531-18.308594 16.40625-30.65625 16.40625h-8v16c-5.855469 0-11.269531 1.695312-16 4.449219v-59.152344c0-11.679687 7.449219-22.007813 18.53125-25.710937zm-2.53125 128.414062c-8.820312 0-16-7.175781-16-16s7.179688-16 16-16v24c0 2.714844.226562 5.378906.554688 8zm16-8v-40.597656c13.488281-2.058594 25.699219-9.257813 34.042969-20.21875 18.464843 12.023437 39.976562 19.167968 61.957031 20.5625v40.253906c0 26.472656-21.527344 48-48 48-26.46875 0-48-21.527344-48-48zm48 64c8.488281 0 16.585938-1.695312 24-4.710938v9.398438l-24 24-24-24v-9.398438c7.417969 3.015626 15.515625 4.710938 24 4.710938zm-46.398438 20.480469 12.082032-3.488281 22.34375 22.34375-23.632813 18.90625zm82.007813 37.761719-23.632813-18.90625 22.34375-22.34375 12.082032 3.488281zm76.390625 13.757812c-4.414062 0-8-3.582031-8-8 0-4.414062 3.585938-8 8-8h112c4.417969 0 8 3.585938 8 8 0 4.417969-3.582031 8-8 8h-72v16h48v41.296875l10.1875 30.542969c-7.066406-.390625-10.769531-2.855469-15.523438-6.3125-5.832031-4.246094-13.109374-9.527344-26.710937-9.527344-13.597656 0-20.863281 5.28125-26.703125 9.527344-4.726562 3.441406-8.425781 5.898437-15.433594 6.304687l10.183594-30.535156v-57.296875zm100.472656 176h-88.941406c-10.769531 0-19.53125-8.757812-19.53125-19.527344 0-2.105468.339844-4.175781 1-6.175781l15.496094-46.488281c1.144531.074218 2.25.191406 3.457031.191406 13.601563 0 20.863281-5.277344 26.703125-9.527344 5.167969-3.757812 8.898438-6.472656 17.296875-6.472656 8.410156 0 12.136719 2.714844 17.304687 6.472656 5.847657 4.25 13.113282 9.527344 26.71875 9.527344 1.25 0 2.3125-.246094 3.480469-.335938l15.542969 46.625c.664062 2 1 4.078126 1 6.175782 0 10.777344-8.757812 19.535156-19.527344 19.535156zm0 0"/></svg>